<svg version="1.2" xmlns="http://www.w3.org/2000/svg" viewBox="0 0 500 500" width="500" height="500">
	<title>New Project</title>
	<style>
		.s0 { fill: #00b894 } 
		.s1 { fill: #d26a5c } 
		.s2 { fill: #b8bfc4 } 
		.s3 { fill: #2f4f4f } 
	</style>
	<g id="&lt;Group&gt;">
		<g id="&lt;Group&gt;">
			<path id="&lt;Path&gt;" class="s0" d="m113.5 371.6c7.1-16.6 12.2-34.8 15-54.1l14.7-102.4c2.3-16.4 13.1-28.3 25.6-28.3 12.5 0 23.3 11.9 25.6 28.3l14.7 102.4c2.8 19.3 7.9 37.5 15 54.1h42.1c-11.9-17.4-20.1-39-23.5-62.7l-14.7-102.4c-5.4-37.9-30.3-65.4-59.2-65.4-28.9 0-53.8 27.5-59.3 65.4l-14.6 102.4c-3.4 23.7-11.6 45.3-23.5 62.7z"/>
			<path id="&lt;Path&gt;" class="s1" d="m312.1 371.6c7.5-17.8 12.6-37.4 15.1-57.8l16.8-140.8c2-16.2 12.3-27.9 24.5-27.9 12.2 0 22.5 11.7 24.5 27.9l16.8 140.8c2.5 20.4 7.6 40 15.1 57.8h41.7c-12-18.2-20.1-40.8-23-65.1l-16.8-140.8c-4.6-38.4-29.1-66.4-58.3-66.4-29.1 0-53.6 28-58.3 66.4l-16.8 140.8c-2.9 24.3-11 46.9-23 65.1z"/>
			<path id="&lt;Path&gt;" class="s2" d="m211.6 371.6c6.5-14.5 11.4-30.3 14.6-47l10.9-57.6c3.3-17.1 14.7-29 27.9-29 13.2 0 24.7 11.9 27.9 29l10.9 57.6c3.2 16.7 8.1 32.5 14.7 47h42.8c-11.7-16.1-20.1-36.1-24.3-58.2l-10.9-57.6c-7.1-37.5-32.2-63.6-61.1-63.6-28.9 0-54 26.1-61.1 63.6l-10.9 57.6c-4.2 22.1-12.6 42.1-24.3 58.2z"/>
		</g>
		<path id="&lt;Path&gt;" class="s3" d="m469.1 404.3h-408.6v-338.3h-30.5v338.3 30.5 0.2h30.5v-0.2h408.6z"/>
	</g>
</svg>