<svg version="1.2" xmlns="http://www.w3.org/2000/svg" viewBox="0 0 500 500" width="500" height="500">
	<title>New Project</title>
	<style>
		.s0 { fill: #2f4f4f } 
		.s1 { fill: #1c1c1c } 
		.s2 { fill: #00b894 } 
		.s3 { fill: #b8bfc4 } 
		.s4 { fill: #d26a5c } 
	</style>
	<g id="&lt;Group&gt;">
		<path id="&lt;Path&gt;" class="s0" d="m371.2 212.8h-241.9c-17.2 0-31.1-13.9-31.1-31v-50.1c0-17.2 13.9-31.1 31.1-31.1h241.9c17.1 0 31 13.9 31 31.1v50.1c0 17.1-13.9 31-31 31z"/>
		<path id="&lt;Path&gt;" class="s0" d="m382 237.1h-126.1v-80.4h-11.3v80.4h-126.1c-15 0-27.1 12.1-27.1 27.1v84.1h11.3v-84.1c0-8.7 7-15.8 15.8-15.8h126.1v92.3h11.3v-92.3h126.1c8.7 0 15.8 7.1 15.8 15.8v80.2h11.3v-80.2c0-15-12.2-27.1-27.1-27.1z"/>
		<path id="&lt;Path&gt;" class="s1" d="m129.3 184.6c-1.6 0-2.8-1.3-2.8-2.8v-50.1c0-1.6 1.2-2.8 2.8-2.8h241.9c1.5 0 2.7 1.2 2.7 2.8v50.1c0 1.5-1.2 2.8-2.7 2.8z"/>
		<g id="&lt;Group&gt;">
			<path id="&lt;Path&gt;" fill-rule="evenodd" class="s2" d="m97 416c-37.5 0-67.7-30.3-67.7-67.7 0-37.5 30.2-67.8 67.7-67.8 37.5 0 67.7 30.3 67.7 67.8 0 37.4-30.2 67.7-67.7 67.7z"/>
			<path id="&lt;Path&gt;" fill-rule="evenodd" class="s3" d="m250.2 416c-37.4 0-67.7-30.3-67.7-67.7 0-37.5 30.3-67.8 67.7-67.8 37.5 0 67.8 30.3 67.8 67.8 0 37.4-30.3 67.7-67.8 67.7z"/>
			<path id="&lt;Path&gt;" fill-rule="evenodd" class="s4" d="m403.4 416c-37.4 0-67.7-30.3-67.7-67.7 0-37.5 30.3-67.8 67.7-67.8 37.5 0 67.8 30.3 67.8 67.8 0 37.4-30.3 67.7-67.8 67.7z"/>
		</g>
	</g>
</svg>